<svg width="512" height="512" viewBox="0 0 512 512" xmlns="http://www.w3.org/2000/svg" xml:space="preserve" style="fill-rule:evenodd;clip-rule:evenodd;stroke-linejoin:round;stroke-miterlimit:2;">
    <g transform="matrix(1.05,0,0,1.05,-25.6,-25.6)">
        <path d="M378.7,212.8c-1.2,-1.3 -2.6,-2.4 -4.1,-3.4c-7.3,-5.1 -14.2,-10.8 -20.6,-17.1c-16.1,-15.8 -29.2,-35.1 -38.6,-56.8c-2.3,-5.3 -4.2,-10.8 -5.6,-16.4c-1,-4.2 -1.9,-8.5 -2.6,-12.7c-0.1,-0.6 -0.1,-1.2 -0.2,-1.8c-0.2,-1.2 -0.3,-2.3 -0.5,-3.5c-0.4,-2.4 -0.7,-4.7 -0.7,-7.1c0,-13.8 11.2,-25 25,-25c13.8,0 25,11.2 25,25c0,2.1 -0.3,4.2 -0.8,6.2c-0.2,0.8 -0.3,1.5 -0.5,2.3c-0.1,0.5 -0.1,1.1 -0.2,1.6c-0.7,4 -1.6,8.1 -2.5,12.1c-1.4,5.4 -3.2,10.7 -5.4,15.8c-9,20.8 -21.6,39.2 -37,54.3c-6.2,6.1 -12.8,11.6 -19.8,16.4c-1.4,1 -2.8,2 -4.1,3.1c-0.1,0.1 -0.2,0.1 -0.2,0.2l-10.7,-10.7c1.3,-1.2 2.7,-2.3 4.1,-3.3c7,-4.9 13.6,-10.3 19.8,-16.1c15.4,-14.9 28.3,-33.8 37.3,-54c2.2,-5 4,-10.1 5.3,-15.1c0.9,-3.8 1.7,-7.7 2.4,-11.5c0.1,-0.5 0.2,-1.1 0.2,-1.6c0.2,-0.7 0.3,-1.5 0.4,-2.2c0.5,-2 0.7,-4.1 0.7,-6.1c0,-12.7 -10.3,-23 -23,-23c-12.7,0 -23,10.3 -23,23c0,2.5 0.3,4.9 0.8,7.2c0.2,1.2 0.4,2.4 0.5,3.6c0.1,0.6 0.1,1.2 0.2,1.8c0.7,4.2 1.6,8.4 2.6,12.6c1.4,5.6 3.3,11.1 5.6,16.4c9.4,21.7 22.5,41 38.6,56.8c6.4,6.3 13.3,12 20.6,17.1c1.5,1 2.9,2.1 4.1,3.4l10.5,-10.5Z" style="fill-opacity:0.1;"/>
    </g>
    <g transform="matrix(1,0,0,1,0,0)">
        <path class="nail" d="M349.5,69.2c0,-12.7 -10.3,-23 -23,-23c-12.7,0 -23,10.3 -23,23c0,2.5 0.3,4.9 0.8,7.2c0.2,1.2 0.4,2.4 0.5,3.6c0.1,0.6 0.1,1.2 0.2,1.8c0.7,4.2 1.6,8.4 2.6,12.6c1.4,5.6 3.3,11.1 5.6,16.4c9.4,21.7 22.5,41 38.6,56.8c0.2,0.2 0.4,0.4 0.6,0.6c-1.3,-1.7 -2.6,-3.4 -3.9,-5.1c-15.3,-19.9 -26.7,-42.6 -33.6,-67.2c-1.5,-5.5 -2.7,-11.1 -3.7,-16.8c-0.8,-4.6 -1.4,-9.3 -1.8,-14c-0.1,-1.1 -0.2,-2.2 -0.2,-3.3c-0.1,-1.2 -0.1,-2.5 -0.1,-3.7c0,-13.2 10.8,-24 24,-24c13.2,0 24,10.8 24,24c0,2.1 -0.2,4.1 -0.6,6.1c-0.2,0.8 -0.3,1.6 -0.5,2.4c-0.1,0.5 -0.2,1 -0.2,1.5c-0.7,3.9 -1.6,7.8 -2.5,11.7c-1.3,5.2 -3.1,10.3 -5.2,15.2c-8.8,20.2 -21.1,38.2 -36.1,52.8c-0.2,0.2 -0.4,0.4 -0.6,0.5c1.1,-1.6 2.2,-3.2 3.3,-4.8c15.1,-20.2 26.5,-43.2 33.3,-68.1c1.5,-5.6 2.7,-11.3 3.6,-17.1c0.7,-4.6 1.3,-9.2 1.7,-13.8c0.1,-1.1 0.2,-2.2 0.2,-3.3c0.1,-1.2 0.1,-2.4 0.1,-3.6Z" style="fill:#fff;"/>
    </g>
    <g transform="matrix(1.05,0,0,1.05,-25.6,-25.6)">
        <path d="M306.9,235.1c-1,-1.3 -2,-2.6 -3.1,-3.9c-7.3,-8.6 -13.5,-18 -18.4,-28.1c-11.2,-23.3 -16.2,-48.5 -14.6,-73.7c0.2,-3.2 0.5,-6.4 0.9,-9.6c0.3,-2.1 0.6,-4.2 1,-6.2c0.1,-0.6 0.2,-1.2 0.3,-1.7c0.3,-1.2 0.5,-2.3 0.8,-3.5c0.6,-2.4 1,-4.8 1,-7.2c0,-13.8 11.2,-25 25,-25c13.8,0 25,11.2 25,25c0,2.3 -0.3,4.6 -0.9,6.8c-0.2,0.8 -0.4,1.6 -0.6,2.3c-0.1,0.4 -0.2,0.9 -0.3,1.3c-0.6,3.8 -1.4,7.6 -2.4,11.3c-1.6,6.1 -3.7,12.1 -6.2,17.8c-7.2,16.6 -16.4,32 -27.5,45.7c-4.9,6 -10.4,11.4 -16.4,16.2c-1.2,1 -2.3,1.9 -3.4,2.9c-0.1,0.1 -0.1,0.1 -0.2,0.2l-10.7,-10.7c1,-1.1 2.1,-2.1 3.2,-3.1c5.8,-4.6 11.1,-9.8 16.1,-15.5c11.2,-13.1 20.6,-28.1 27.6,-44.3c2.5,-5.7 4.5,-11.5 6,-17.4c1,-3.7 1.8,-7.4 2.4,-11.1c0.1,-0.4 0.2,-0.9 0.3,-1.3c0.2,-0.8 0.4,-1.5 0.5,-2.3c0.6,-2.2 0.8,-4.4 0.8,-6.7c0,-12.7 -10.3,-23 -23,-23c-12.7,0 -23,10.3 -23,23c0,2.5 0.4,5 1,7.4c0.2,0.9 0.5,1.8 0.7,2.7c0.1,0.3 0.1,0.6 0.2,0.9c0.7,3.1 1.6,6.2 2.7,9.2c1.6,4.5 3.5,8.9 5.6,13.2c8,17.8 18.2,34.4 30.1,49.1c4.8,5.9 10.1,11.2 15.9,15.7c1.1,0.9 2.1,1.7 3.2,2.6l10.5,-10.5c-0.1,-0.1 -0.1,-0.1 -0.2,-0.2Z" style="fill-opacity:0.1;"/>
    </g>
    <g transform="matrix(1,0,0,1,0,0)">
        <path class="nail" d="M325.2,74.2c0,-13.2 10.8,-24 24,-24c13.2,0 24,10.8 24,24c0,2.3 -0.3,4.5 -0.8,6.7c-0.2,0.8 -0.4,1.5 -0.5,2.3c-0.1,0.4 -0.2,0.9 -0.3,1.3c-0.6,3.7 -1.8,7.4 -2.4,11.1c-1.5,5.9 -3.5,11.7 -6,17.4c-7,16.2 -16.4,31.2 -27.6,44.3c-0.2,0.2 -0.4,0.5 -0.6,0.7c0.8,-1.7 1.6,-3.4 2.4,-5.2c10.8,-24.1 15,-50.2 12.8,-76.1c-0.4,-4.8 -1.1,-9.6 -2,-14.2c-0.3,-1.6 -0.7,-3.2 -1.1,-4.8c-0.1,-0.5 -0.2,-1 -0.3,-1.4c-0.4,-1.6 -0.7,-3.3 -0.8,-4.9c-0.1,-1.2 -0.1,-2.4 -0.1,-3.6c0,-13.2 -10.8,-24 -24,-24c-13.2,0 -24,10.8 -24,24c0,2.5 0.4,5 1,7.4c0.2,0.9 0.5,1.8 0.7,2.7c0.1,0.3 0.1,0.6 0.2,0.9c0.7,3.1 1.6,6.2 2.7,9.2c1.6,4.5 3.5,8.9 5.6,13.2c8,17.8 18.2,34.4 30.1,49.1c0.2,0.2 0.3,0.5 0.5,0.7c0.8,-1.7 1.6,-3.5 2.4,-5.2c10.9,-24.4 15.1,-50.8 12.8,-77.2c-0.4,-4.9 -1.1,-9.7 -2.1,-14.5c-0.3,-1.6 -0.7,-3.2 -1.1,-4.8c-0.1,-0.5 -0.2,-1 -0.3,-1.5c-0.4,-1.6 -0.7,-3.3 -0.8,-5c-0.1,-1.2 -0.1,-2.4 -0.1,-3.7Z" style="fill:#fff;"/>
    </g>
    <g transform="matrix(1.05,0,0,1.05,-25.6,-25.6)">
        <path d="M239,248.8c-1.1,-1.3 -2.2,-2.6 -3.4,-3.9c-7.3,-8.3 -13.6,-17.4 -18.6,-27.4c-12.8,-25.6 -18.2,-53.4 -15.5,-81.1c0.4,-3.8 0.8,-7.6 1.4,-11.4c0.4,-2.5 0.9,-5 1.4,-7.5c0.1,-0.5 0.2,-1 0.3,-1.5c0.3,-1.2 0.6,-2.4 0.9,-3.6c0.6,-2.5 1.1,-5.1 1.1,-7.6c0,-13.8 11.2,-25 25,-25c13.8,0 25,11.2 25,25c0,2.5 -0.4,5 -1,7.4c-0.2,0.8 -0.5,1.7 -0.7,2.5c-0.1,0.3 -0.2,0.6 -0.2,0.9c-0.7,3.1 -1.6,6.2 -2.7,9.2c-1.8,5 -4.1,9.9 -6.7,14.5c-8.1,14.3 -18.2,27.5 -30,39.1c-5.4,5.3 -11.4,9.8 -17.8,13.4c-1.3,0.7 -2.6,1.4 -3.9,2.2c-0.1,0 -0.1,0.1 -0.2,0.1l-10.8,-10.8c1.2,-0.8 2.4,-1.6 3.7,-2.4c6.2,-3.5 12,-7.8 17.2,-12.9c11.7,-11.5 21.6,-24.4 29.5,-38.4c2.6,-4.6 4.8,-9.4 6.6,-14.2c1.1,-3 2,-6.1 2.7,-9.1c0.1,-0.3 0.2,-0.6 0.2,-0.9c0.2,-0.8 0.5,-1.6 0.7,-2.5c0.6,-2.4 0.9,-4.9 0.9,-7.3c0,-12.7 -10.3,-23 -23,-23c-12.7,0 -23,10.3 -23,23c0,2.6 0.4,5.2 1.1,7.7c0.3,1 0.6,2 0.9,3c0.1,0.2 0.2,0.5 0.2,0.7c0.8,3.2 1.8,6.4 3,9.5c1.8,4.7 4,9.2 6.5,13.6c9.1,15.7 20,30.1 32.3,42.6c5.5,5.6 11.6,10.4 18.2,14.2c1.3,0.7 2.6,1.4 3.9,2.1l10.5,-10.5c-0.1,0 -0.1,-0.1 -0.2,-0.1Z" style="fill-opacity:0.1;"/>
    </g>
    <g transform="matrix(1,0,0,1,0,0)">
        <path class="nail" d="M259.4,86.6c0,-12.7 -10.3,-23 -23,-23c-12.7,0 -23,10.3 -23,23c0,2.6 0.4,5.2 1.1,7.7c0.3,1 0.6,2 0.9,3c0.1,0.2 0.2,0.5 0.2,0.7c0.8,3.2 1.8,6.4 3,9.5c1.8,4.7 4,9.2 6.5,13.6c9.1,15.7 20,30.1 32.3,42.6c0.2,0.2 0.5,0.4 0.7,0.6c0.8,-1.7 1.7,-3.5 2.5,-5.3c14.2,-30.4 16.7,-64.1 7.2,-95.8c-1.3,-4.2 -3,-8.3 -5,-12.2c-0.7,-1.3 -1.4,-2.6 -2.1,-3.9c-0.9,-1.6 -1.8,-3.2 -2.6,-4.8c-0.1,-0.2 -0.2,-0.4 -0.3,-0.6c-2.4,-4.2 -4.4,-8.6 -6,-13.2c-0.5,-1.5 -1,-2.9 -1.4,-4.4c-0.2,-0.8 -0.4,-1.5 -0.6,-2.3c-0.5,-1.9 -0.8,-3.8 -0.8,-5.8c0,-13.2 10.8,-24 24,-24c13.2,0 24,10.8 24,24c0,2 -0.2,4 -0.7,5.9c-0.2,0.7 -0.4,1.5 -0.5,2.2c-0.5,1.5 -1,3 -1.4,4.5c-1.6,4.6 -3.6,9 -6,13.2c-0.1,0.2 -0.2,0.4 -0.3,0.6c-0.9,1.6 -1.8,3.2 -2.6,4.8c-0.7,1.3 -1.4,2.6 -2.1,3.9c-2,3.9 -3.7,8 -5,12.2c-9.5,31.7 -7,65.4 7.2,95.8c0.2,0.3 0.5,0.6 0.7,0.9c0.8,-1.8 1.7,-3.6 2.5,-5.4c14,-30.1 16.5,-63.5 7.2,-95Z" style="fill:#fff;"/>
    </g>
    <g transform="matrix(1.05,0,0,1.05,-25.6,-25.6)">
        <path d="M197,258.9c-0.9,-0.8 -1.8,-1.7 -2.7,-2.5c-8.1,-7.6 -15,-16.2 -20.4,-25.8c-12.2,-21.8 -17.4,-45.8 -15.1,-69.8c0.3,-3.3 0.8,-6.6 1.3,-9.8c0.4,-2.1 0.9,-4.2 1.4,-6.3c0.1,-0.4 0.2,-0.8 0.3,-1.2c0.3,-1.2 0.7,-2.4 1,-3.6c0.7,-2.5 1.2,-5.1 1.2,-7.7c0,-13.8 11.2,-25 25,-25c13.8,0 25,11.2 25,25c0,2.5 -0.4,5 -1.1,7.4c-0.2,0.7 -0.5,1.4 -0.7,2.1c-0.1,0.3 -0.2,0.5 -0.2,0.8c-0.6,2.6 -1.4,5.2 -2.4,7.8c-1.6,4.3 -3.6,8.5 -5.9,12.5c-6.8,11.8 -15.2,22.7 -25,32.4c-4.9,4.9 -10.2,9 -15.9,12.4c-1.2,0.7 -2.4,1.4 -3.6,2.1c0,0 -0.1,0 -0.1,0l-10.8,-10.8c1.2,-0.7 2.3,-1.4 3.5,-2.1c5.5,-3.3 10.6,-7.3 15.4,-12c9.7,-9.6 17.9,-20.3 24.6,-31.9c2.3,-4 4.3,-8.1 5.8,-12.3c1,-2.6 1.8,-5.2 2.4,-7.7c0.1,-0.3 0.2,-0.6 0.2,-0.8c0.2,-0.7 0.5,-1.4 0.7,-2.1c0.7,-2.4 1,-4.8 1,-7.2c0,-12.7 -10.3,-23 -23,-23c-12.7,0 -23,10.3 -23,23c0,2.7 0.4,5.3 1.2,7.9c0.3,0.9 0.7,1.8 1,2.7c0.1,0.2 0.2,0.4 0.2,0.6c0.9,2.7 1.9,5.4 3.2,8.1c1.8,3.9 4,7.7 6.4,11.3c7.8,12.9 17.3,24.4 28.2,34.2c5.3,4.7 11.1,8.6 17.2,11.6c1.2,0.6 2.4,1.2 3.6,1.7l10.5,-10.5c0,0 -0.1,0 -0.1,-0.1Z" style="fill-opacity:0.1;"/>
    </g>
    <g transform="matrix(1,0,0,1,0,0)">
        <path class="nail" d="M222.1,102.7c0,-12.7 -10.3,-23 -23,-23c-12.7,0 -23,10.3 -23,23c0,2.7 0.4,5.3 1.2,7.9c0.3,0.9 0.7,1.8 1,2.7c0.1,0.2 0.2,0.4 0.2,0.6c0.9,2.7 1.9,5.4 3.2,8.1c1.8,3.9 4,7.7 6.4,11.3c7.8,12.9 17.3,24.4 28.2,34.2c0.3,0.3 0.5,0.5 0.8,0.8c0.7,-1.4 1.4,-2.8 2.1,-4.3c10.1,-21.2 13.6,-44.3 9.9,-67.2c-0.6,-3.6 -1.5,-7.2 -2.6,-10.7c-0.4,-1.2 -0.8,-2.4 -1.3,-3.6c-0.6,-1.6 -1.3,-3.2 -2,-4.8c-0.2,-0.4 -0.4,-0.8 -0.6,-1.2c-2.1,-3.6 -4,-7.3 -5.7,-11.1c-0.6,-1.3 -1.1,-2.6 -1.6,-3.9c-0.2,-0.6 -0.5,-1.3 -0.7,-1.9c-0.6,-1.7 -1,-3.5 -1.1,-5.3c-0.1,-0.9 -0.1,-1.8 -0.1,-2.7c0,-13.2 10.8,-24 24,-24c13.2,0 24,10.8 24,24c0,0.9 -0.1,1.8 -0.1,2.7c-0.1,1.8 -0.5,3.6 -1.1,5.3c-0.2,0.6 -0.5,1.3 -0.7,1.9c-0.5,1.3 -1,2.6 -1.6,3.9c-1.7,3.8 -3.6,7.5 -5.7,11.1c-0.2,0.4 -0.4,0.8 -0.6,1.2c-0.7,1.6 -1.4,3.2 -2,4.8c-0.5,1.2 -0.9,2.4 -1.3,3.6c-1.1,3.5 -2,7.1 -2.6,10.7c-3.7,22.9 -0.2,46 9.9,67.2c0.2,0.4 0.5,0.8 0.7,1.2c0.7,-1.5 1.4,-3 2.1,-4.5c9.9,-20.9 13.4,-43.7 9.9,-66.2Z" style="fill:#fff;"/>
    </g>
    <g transform="matrix(1.05,0,0,1.05,-25.6,-25.6)">
        <path d="M421.3,371.4c-35.8,-2.9 -68.3,-17.6 -94.2,-41.2c-17.6,-16 -30.5,-36.1 -37.9,-58.9c-2.4,-7.5 -4.1,-15.3 -4.9,-23.3c-0.9,-8.5 -0.9,-17.1 -0.1,-25.6c0.9,-9.5 2.8,-18.8 5.7,-27.6c3,-9.1 7,-17.8 11.9,-25.9c0.2,-0.3 0.4,-0.6 0.6,-0.9c-1.1,-3.2 -1.4,-6.6 -0.9,-10c1.2,-8.1 7.8,-14.2 15.9,-14.2c8.8,0 16,7.2 16,16c0,2.1 -0.4,4.2 -1.2,6.1c-0.4,1 -0.9,2 -1.5,2.9c-2.7,4.2 -5,8.8 -6.9,13.6c-4.3,11.1 -7.4,22.8 -9.1,34.8c-1.6,11.2 -1.8,22.5 -0.5,33.7c1.3,11.1 4,22 8.1,32.4c7.3,18.5 18,35.6 31.7,49.8c19.1,20.1 43.1,32.6 69.5,36.1c0.1,0 0.2,0 0.3,0l0.5,12.9c-0.3,0 -0.5,0 -0.8,0Z" style="fill-opacity:0.1;"/>
    </g>
    <g transform="matrix(1,0,0,1,0,0)">
        <path d="M228.3,142.1c-4.9,8.1 -8.9,16.8 -11.9,25.9c-2.9,8.8 -4.8,18.1 -5.7,27.6c-0.8,8.5 -0.8,17.1 0.1,25.6c0.8,8 2.5,15.8 4.9,23.3c7.4,22.8 20.3,42.9 37.9,58.9c25.9,23.6 58.4,38.3 94.2,41.2c1.8,0.1 3.6,0.2 5.4,0.2c1.1,0 2.1,-0.1 3.2,-0.1c11.4,-0.5 22.7,-2.3 33.5,-5.5c10.5,-3.1 20.6,-7.4 29.9,-12.9c9.5,-5.6 18,-12.3 25.5,-19.9c7.6,-7.8 14,-16.4 19.1,-25.6c5.2,-9.3 9,-19.2 11.3,-29.5c2.3,-10.1 3.1,-20.4 2.3,-30.7c-0.8,-9.9 -3.1,-19.6 -6.7,-28.7c-3.8,-9.2 -8.8,-17.8 -14.9,-25.6c-6,-7.6 -13,-14.4 -20.9,-20.2c-7.8,-5.8 -16.4,-10.6 -25.7,-14.4c-9.1,-3.7 -18.7,-6.3 -28.7,-7.8c-10,-1.5 -20.2,-1.8 -30.3,-1c-10.2,0.8 -20.2,2.8 -29.8,5.9c-9.6,3.1 -18.7,7.2 -27.3,12.3c-4.7,2.8 -9.2,5.9 -13.5,9.3c-0.3,0.2 -0.5,0.5 -0.8,0.7c-1.1,-3.2 -1.4,-6.6 -0.9,-10c1.2,-8.1 7.8,-14.2 15.9,-14.2c8.8,0 16,7.2 16,16c0,2.1 -0.4,4.2 -1.2,6.1c-0.4,1 -0.9,2 -1.5,2.9c-2.7,4.2 -5,8.8 -6.9,13.6c-4.3,11.1 -7.4,22.8 -9.1,34.8c-1.6,11.2 -1.8,22.5 -0.5,33.7c1.3,11.1 4,22 8.1,32.4c7.3,18.5 18,35.6 31.7,49.8c19.1,20.1 43.1,32.6 69.5,36.1c10.9,1.4 21.8,0.7 32.3,-2.1c10.3,-2.7 20.1,-7.4 28.9,-13.8c8.8,-6.4 16.5,-14.4 22.8,-23.6c6.2,-9.1 11,-19.4 14.1,-30.3c3.1,-10.8 4.6,-22.2 4.2,-33.6c-0.3,-11.7 -2.6,-23.2 -6.6,-34c-4,-10.7 -9.7,-20.7 -16.8,-29.6c-7,-8.8 -15.4,-16.5 -24.8,-22.8c-9.3,-6.3 -19.6,-11.2 -30.5,-14.6c-10.8,-3.4 -22,-5.1 -33.5,-5.2c-11.2,0 -22.3,1.6 -32.9,4.8c-10.4,3.1 -20.3,7.7 -29.3,13.6c-8.9,5.8 -17,12.9 -24,20.9c-4.8,5.4 -9,11.3 -12.7,17.6c-0.2,0.4 -0.5,0.8 -0.7,1.2Z" style="fill:#e5b39c;"/>
    </g>
</svg>
