<svg version="1.1" id="Layer_1" xmlns="http://www.w3.org/2000/svg" xmlns:xlink="http://www.w3.org/1999/xlink" x="0px" y="0px"
	 viewBox="0 0 500 500" style="enable-background:new 0 0 500 500;" xml:space="preserve">
<style type="text/css">
	.st0{fill:none;stroke:#000000;stroke-width:3;stroke-linecap:round;stroke-linejoin:round;stroke-miterlimit:10;}
	.nail{fill:#FFFFFF;stroke:#000000;stroke-width:3;stroke-linecap:round;stroke-linejoin:round;stroke-miterlimit:10;transition:fill 0.2s ease;}
</style>
<g>
	<path class="st0" d="M358.9,353.7c0,0-12.3-25.2-12.3-39c0-21.1,19-38.3,19-38.3s-10-18.4-10-27.1s2.8-22,2.8-22s-6-15.1-6-24.8
		c0-9.7,7.2-16.7,7.2-16.7s-10.8-13.8-10.8-26.2c0-12.4,9.4-23,9.4-23s-1.1-23.3,11.2-31.9c12.3-8.6,30.2-2.3,30.2-2.3
		s13.8,25.1,13.8,36.9c0,11.8-8,21.6-8,21.6s12.3,15.1,12.3,27.5s-7.1,20.4-7.1,20.4s7.2,16.7,7.2,27.1s-10,24.8-10,24.8
		s2.1,30.3,2.1,38.3c0,7.9-10.2,18.4-20.9,23.3C385.6,359.8,358.9,353.7,358.9,353.7z"/>
	<path class="st0" d="M312,126.3c15.1-4.7,29.9,2.8,29.9,2.8s-3.7,18.4-1.4,26.2c2.3,7.8,11.2,12.3,11.2,12.3s-0.7,28.2,1.6,38.9
		s12.3,16.7,12.3,16.7l-4.7,15.1l-10,33.5c0,0-2.8-3.7-6-5.3c-3.2-1.6-9.3-3-11.2-1.6c-1.9,1.4,0.3,5.3,0.3,5.3l-10,28.9
		c0,0-14.4-4-22-10.4c-7.6-6.4-15.8-16.7-15.8-16.7s-14.1,2.8-20.9,4.3c-6.8,1.6-14.1,3-18.1,2.3c-4-0.7-5.3-4.3-5.3-4.3
		s-1.1-20.7-1.1-26.2c0-5.5,1.1-13.8,1.1-13.8s0.1-25.5,6-33.5c5.9-8,14.4-10.4,14.4-10.4s9.3-26.4,13.4-38.3
		c4-11.9,11.2-24.8,20.9-28.9C289,122,301.6,129.5,312,126.3z"/>
	<path class="st0" d="M222.1,165.9c3.2-20,16.2-35.1,33.5-40.6c17.3-5.5,33.5-0.7,33.5-0.7s10,21.1,11.2,33.5
		c1.1,12.4,1.4,27.5-6,37.6c-7.4,10-18.4,12.3-18.4,12.3s-2.3,47.4-4.7,65.7c-2.3,18.3-10,34.2-24.8,43.2
		c-14.8,9-32.8,10-32.8,10s-10.8-22-13.1-40.6c-2.3-18.6-0.3-44-0.3-44s-10-1.6-16.7-6.8S218.1,188.9,222.1,165.9z"/>
	<path class="st0" d="M192.3,212.8c-2.6-18.1,2.3-37.4,13.8-51.4c11.5-14,28.9-20,47.4-16.7c18.5,3.2,32.8,16.2,36.9,33.5
		c4,17.3-0.7,35.8-11.2,49.2c-10.5,13.4-26.2,20.7-43.2,19.3c-17-1.4-31.9-10.8-41.3-24.1C197.8,247,194.9,230.9,192.3,212.8z"
		/>
	<path class="st0" d="M174.5,237.9c-10.9-11.3-17.7-26.6-18.8-42.5c-1.1-16,3.3-32.1,12.4-45.6c9.1-13.5,22.6-23,38.2-26.5
		c15.6-3.5,31.7,0.1,44.9,9.4c13.2,9.3,22.3,23.5,25.8,39.5c3.5,16-0.1,32.8-9.4,46.8c-9.3,14-23.5,23.4-39.5,26.9
		c-16,3.5-32.8-0.1-46.8-9.4C198.8,262.8,185.4,249.2,174.5,237.9z"/>
	<path id="nail-thumb" class="nail" d="M185.9,203.9c-2.7-18,2.4-37.1,14.1-51c11.7-13.9,29.1-19.8,47.8-16.4c18.7,3.4,33.2,16.5,37.3,34
		c4.1,17.5-0.7,36.2-11.4,49.8c-10.7,13.6-26.7,21-44.1,18.5C212.6,236.1,197.8,227.1,185.9,203.9z"/>
	<path id="nail-index" class="nail" d="M228.8,157.9c-3.4-19.8,10.2-39.7,29.3-46.2c19.1-6.5,39.4,2.4,45.8,21.5c6.4,19.1-2.4,39.4-21.5,45.8
		C263.3,185.5,241.9,179.3,228.8,157.9z"/>
	<path id="nail-middle" class="nail" d="M276,124.6c-4.3-17,6.8-34.6,23.5-41.2c16.7-6.5,35,0,41.5,17c6.5,17-0.1,35.3-17,41.9
		C307.2,148.8,287.4,142.9,276,124.6z"/>
	<path id="nail-ring" class="nail" d="M312.4,153c-1.9-15.6,9.1-30.8,24.4-34.7c15.3-3.9,31,4.4,34.9,19.7c3.9,15.3-4.4,31-19.7,34.9
		C336.7,176.8,319.2,169.4,312.4,153z"/>
	<path id="nail-pinky" class="nail" d="M358.9,191.8c-0.1-12.7,9.3-23.4,21.7-25.1c12.4-1.7,24,6.4,25.7,18.8c1.7,12.4-6.4,24-18.8,25.7
		C375.1,213,359,204.4,358.9,191.8z"/>
</g>
</svg>
